<svg width="30" height="30" viewBox="0 0 30 30" fill="none" xmlns="http://www.w3.org/2000/svg">
<g clip-path="url(#clip0_7_62)">
<path d="M18.7152 4.28992C16.271 3.72204 13.7289 3.72204 11.2846 4.28994C9.87285 3.42338 8.79409 3.02572 8.01005 2.85818C7.58379 2.76708 7.24593 2.74432 6.99181 2.75112C6.86499 2.7545 6.76003 2.76522 6.67643 2.7781C6.63467 2.78452 6.59839 2.79146 6.56751 2.79822C6.55207 2.8016 6.53799 2.80494 6.52529 2.80816L6.50725 2.81286L6.49901 2.81512L6.49507 2.81622L6.49127 2.8173C6.49125 2.8173 6.49127 2.81728 6.49127 2.8173C6.49041 2.81768 6.49463 2.82904 6.76599 3.7779L6.49127 2.8173C6.20721 2.89852 5.97361 3.10122 5.85315 3.37098C5.51683 4.12404 5.33315 4.93632 5.31271 5.76082C5.29751 6.37354 5.37269 6.98398 5.53487 7.57266C5.10867 8.0889 4.76141 8.66698 4.50553 9.28814C4.16969 10.1035 3.99789 10.977 3.99997 11.8588C4.00023 14.9639 4.91631 17.0516 6.47747 18.3931C7.57127 19.3331 8.90097 19.8332 10.2324 20.1196C10.0125 20.7304 9.95547 21.3766 9.99997 22.0352V23.2316C9.18527 23.403 8.62271 23.3488 8.22165 23.2164C7.71769 23.05 7.33133 22.7156 6.96279 22.235C6.77613 21.9918 6.60417 21.7246 6.42359 21.4322L6.30897 21.2456C6.16755 21.0146 6.01493 20.7656 5.86091 20.5384C5.47929 19.9756 4.91627 19.2723 4.00391 19.0328L3.03669 18.7788L2.52881 20.7132L3.49603 20.9672C3.65493 21.009 3.86409 21.1572 4.20559 21.6608C4.33107 21.8458 4.45077 22.0412 4.58745 22.2642C4.63037 22.3342 4.67507 22.4072 4.72205 22.4834C4.90977 22.7872 5.12507 23.1254 5.37593 23.4524C5.88239 24.1126 6.57195 24.778 7.59485 25.1156C8.29767 25.3476 9.09207 25.4032 9.99997 25.2638V29C9.99997 29.5522 10.4477 30 11 30H19C19.5523 30 20 29.5522 20 29V21.875C20 21.2434 19.9725 20.666 19.7947 20.1272C21.1194 19.8476 22.4386 19.3471 23.5252 18.4064C25.0858 17.0555 26 14.9489 26 11.825V11.8218C25.995 10.2642 25.4484 8.76394 24.465 7.5727C24.6272 6.984 24.7024 6.37356 24.6872 5.76082C24.6668 4.93632 24.4832 4.12404 24.1468 3.37098C24.0262 3.10114 23.7926 2.89842 23.5084 2.81722L23.2338 3.77874C23.5084 2.81722 23.5056 2.81642 23.5046 2.81614L23.5008 2.81504L23.4924 2.8128L23.4744 2.8081C23.4618 2.8049 23.4476 2.80156 23.4322 2.79818C23.4014 2.79142 23.3652 2.7845 23.3234 2.77808C23.2398 2.76522 23.1348 2.7545 23.008 2.75112C22.7538 2.74432 22.4158 2.76708 21.9894 2.85816C21.2052 3.02572 20.1266 3.42336 18.7152 4.28992Z" fill="#005A75"/>
</g>
<defs>
<clipPath id="clip0_7_62">
<rect width="30" height="30" fill="white"/>
</clipPath>
</defs>
</svg>
