<svg width="30" height="30" viewBox="0 0 30 30" fill="none" xmlns="http://www.w3.org/2000/svg">
<path d="M6.98323 9.65125H0.960678C0.693387 9.65125 0.476807 9.86792 0.476807 10.1351V29.483C0.476807 29.7503 0.693387 29.9669 0.960678 29.9669H6.98323C7.25052 29.9669 7.4671 29.7503 7.4671 29.483V10.1351C7.4671 9.86792 7.25052 9.65125 6.98323 9.65125Z" fill="#005A75"/>
<path d="M3.97413 0.032959C1.78277 0.032959 0 1.8138 0 4.00273C0 6.19264 1.78277 7.97415 3.97413 7.97415C6.16374 7.97415 7.94506 6.19254 7.94506 4.00273C7.94516 1.8138 6.16374 0.032959 3.97413 0.032959Z" fill="#005A75"/>
<path d="M22.302 9.17041C19.8831 9.17041 18.095 10.2102 17.0105 11.3918V10.1352C17.0105 9.86796 16.7939 9.65128 16.5266 9.65128H10.7589C10.4917 9.65128 10.2751 9.86796 10.2751 10.1352V29.483C10.2751 29.7503 10.4917 29.9669 10.7589 29.9669H16.7683C17.0356 29.9669 17.2522 29.7503 17.2522 29.483V19.9103C17.2522 16.6845 18.1284 15.4278 20.377 15.4278C22.826 15.4278 23.0206 17.4425 23.0206 20.0763V29.4831C23.0206 29.7504 23.2372 29.967 23.5045 29.967H29.5161C29.7834 29.967 30 29.7504 30 29.4831V18.8705C30 14.0739 29.0854 9.17041 22.302 9.17041Z" fill="#005A75"/>
</svg>
