<svg width="113" height="100" viewBox="0 0 113 62" fill="none" xmlns="http://www.w3.org/2000/svg">
<path d="M1.7864 31.2657C1.89722 47.2316 26.354 60.0057 56.4109 59.797C86.4678 59.5884 110.745 46.4761 110.634 30.5102C110.523 14.5445 86.0664 1.77023 56.0095 1.97886C25.9526 2.18748 1.67558 15.3 1.7864 31.2657Z" fill="url(#paint0_radial_40_541)"/>
<path d="M56.396 57.6507C85.2789 57.4502 108.611 45.3055 108.508 30.5249C108.406 15.7445 84.9074 3.92467 56.0245 4.12514C27.1416 4.32562 3.80979 16.4705 3.91238 31.2509C4.01498 46.0315 27.5131 57.8511 56.396 57.6507Z" fill="#777BB3"/>
<path d="M31.3785 34.379C33.7534 34.3625 35.5233 33.908 36.6391 33.0284C37.7429 32.1578 38.499 30.6575 38.8863 28.5694C39.2474 26.6177 39.0952 25.2577 38.4343 24.5278C37.7584 23.7823 36.3058 23.4119 34.1169 23.4271L30.3215 23.4534L28.2933 34.4004L31.3785 34.379ZM19.0583 47.9319C18.8821 47.9332 18.7142 47.8548 18.6013 47.718C18.4881 47.5815 18.4414 47.4009 18.4738 47.2259L23.849 18.2161C23.901 17.9357 24.1427 17.7317 24.4253 17.7297L36.4435 17.6463C40.2206 17.6201 43.0391 18.6361 44.8204 20.6667C46.6112 22.7078 47.1797 25.5745 46.5101 29.1868C46.2376 30.6585 45.7609 32.0268 45.0932 33.2535C44.4247 34.4817 43.5379 35.6199 42.457 36.6372C41.1632 37.877 39.6954 38.7797 38.0983 39.316C36.5265 39.8451 34.5052 40.122 32.0905 40.1387L27.2241 40.1725L25.8845 47.4019C25.8325 47.6826 25.591 47.8866 25.3083 47.8886L19.0583 47.9319Z" fill="black"/>
<path d="M30.8124 24.046L34.121 24.0231C36.7629 24.0047 37.6846 24.5837 37.9989 24.9304C38.5202 25.506 38.6263 26.7266 38.3058 28.46C37.9457 30.4006 37.2627 31.7796 36.2756 32.5581C35.265 33.355 33.6158 33.7668 31.3743 33.7824L29.0055 33.7988L30.8124 24.046ZM36.4394 17.0496L24.421 17.1331C23.8557 17.137 23.3725 17.5451 23.2685 18.1061L17.8933 47.116C17.8284 47.4661 17.9219 47.827 18.148 48.1003C18.3743 48.3737 18.7097 48.5304 19.0624 48.5279L25.3123 48.4846C25.8778 48.4806 26.361 48.0726 26.465 47.5115L27.715 40.7651L32.0946 40.7347C34.5714 40.7175 36.6544 40.4303 38.2855 39.8813C39.9629 39.3181 41.5033 38.3721 42.8633 37.0698C43.9883 36.01 44.9128 34.8229 45.6106 33.5409C46.3086 32.2584 46.8065 30.8303 47.0906 29.2962C47.7955 25.4937 47.1803 22.4571 45.2624 20.2711C43.363 18.106 40.3944 17.0222 36.4394 17.0496ZM27.5809 35.0014L31.3826 34.975C33.9024 34.9575 35.776 34.4653 37.0026 33.498C38.2294 32.5306 39.0501 30.9245 39.4668 28.679C39.8655 26.523 39.6665 25.0049 38.8701 24.1253C38.0726 23.2456 36.4871 22.814 34.1127 22.8304L29.8306 22.8602L27.5809 35.0014V35.0014ZM36.4477 18.2423C40.0631 18.2172 42.7073 19.1569 44.3785 21.0618C46.0494 22.9666 46.5672 25.638 45.9296 29.0768C45.6672 30.4933 45.2157 31.7899 44.5757 32.9662C43.9348 34.1433 43.0948 35.2213 42.0543 36.2008C40.8145 37.3887 39.434 38.2388 37.9119 38.7499C36.3898 39.2624 34.4485 39.5257 32.0864 39.5421L26.733 39.5793L25.304 47.2919L19.0541 47.3353L24.4293 18.3257L36.4477 18.2423" fill="white"/>
<path d="M60.9154 39.9385C60.7391 39.9397 60.5714 39.8614 60.4584 39.7246C60.3451 39.588 60.2984 39.4077 60.3308 39.2325L62.7085 26.3968C62.9347 25.1761 62.8707 24.3015 62.5286 23.9342C62.3192 23.7096 61.6921 23.3349 59.8459 23.3477L55.3771 23.3787L52.3877 39.515C52.3357 39.7957 52.094 39.9997 51.8113 40.0017L45.6107 40.0447C45.4343 40.046 45.2667 39.9676 45.1535 39.8308C45.0404 39.6943 44.9936 39.5137 45.0261 39.3387L50.4012 10.3289C50.4532 10.0485 50.6949 9.84444 50.9776 9.84248L57.1782 9.79944C57.3546 9.79821 57.5223 9.87656 57.6354 10.0131C57.7486 10.1499 57.7953 10.3303 57.7629 10.5054L56.4657 17.5071L61.2731 17.4738C64.9354 17.4484 67.4233 18.0831 68.8791 19.4144C70.3629 20.7725 70.8382 22.9571 70.2917 25.9085L67.7909 39.4081C67.7389 39.6888 67.4974 39.8928 67.2145 39.8948L60.9154 39.9385Z" fill="black"/>
<path d="M57.1741 9.20281L50.9735 9.24585C50.4079 9.24978 49.9247 9.65785 49.8207 10.2189L44.4456 39.2288C44.3807 39.5789 44.4741 39.9398 44.7005 40.2131C44.9268 40.4865 45.2621 40.6432 45.6149 40.6407L51.8155 40.5977C52.3808 40.5938 52.8642 40.1857 52.9682 39.6246L55.8681 23.9714L59.8501 23.9437C61.6931 23.9309 62.0827 24.3258 62.0984 24.3428C62.211 24.4634 62.362 25.0249 62.128 26.2868L59.7503 39.1225C59.6854 39.4726 59.7789 39.8336 60.0052 40.1069C60.2315 40.3802 60.5668 40.5369 60.9196 40.5345L67.2186 40.4908C67.784 40.4869 68.2674 40.0788 68.3714 39.5177L70.872 26.018C71.4589 22.8492 70.9216 20.4788 69.2756 18.9724C67.705 17.536 65.086 16.8507 61.269 16.8771L57.1777 16.9055L58.3434 10.615C58.4081 10.2649 58.3148 9.90375 58.0885 9.6306C57.8622 9.35726 57.5268 9.20036 57.1741 9.20281ZM57.1824 10.3954L55.7534 18.1081L61.2773 18.0698C64.7529 18.0457 67.1546 18.6416 68.4825 19.8561C69.8105 21.0714 70.2195 23.0526 69.7112 25.7987L67.2104 39.2981L60.9113 39.3419L63.289 26.5064C63.5596 25.0463 63.4495 24.0523 62.9585 23.5254C62.4672 22.9984 61.4282 22.7401 59.8418 22.7511L54.886 22.7855L51.8072 39.4051L45.6066 39.4481L50.9817 10.4385L57.1824 10.3954Z" fill="white"/>
<path d="M80.1597 34.0402C82.5346 34.0237 84.3045 33.5691 85.4203 32.6895C86.5241 31.8191 87.2803 30.3189 87.6677 28.2306C88.0288 26.2788 87.8767 24.9188 87.2155 24.1889C86.5396 23.4434 85.087 23.073 82.8981 23.0882L79.1027 23.1145L77.0745 34.0616L80.1597 34.0402ZM67.8397 47.5931C67.6635 47.5943 67.4956 47.5159 67.3827 47.3792C67.2695 47.2426 67.2226 47.062 67.2551 46.8871L72.6302 17.8773C72.6824 17.5968 72.9239 17.3928 73.2068 17.3908L85.2248 17.3074C89.002 17.2812 91.8204 18.2973 93.6018 20.3278C95.3926 22.3688 95.9609 25.2354 95.2915 28.8479C95.0186 30.3196 94.5421 31.6879 93.8744 32.9147C93.206 34.1428 92.3191 35.281 91.2382 36.2983C89.9444 37.5382 88.4766 38.4409 86.8795 38.9771C85.3078 39.5063 83.2864 39.7831 80.8717 39.7999L76.0051 39.8336L74.6661 47.063C74.6139 47.3437 74.3724 47.5477 74.0895 47.5497L67.8397 47.5931Z" fill="black"/>
<path d="M79.5938 23.7077L82.9023 23.6847C85.5442 23.6663 86.466 24.2454 86.7802 24.592C87.3017 25.1677 87.4078 26.3882 87.0872 28.1215C86.727 30.0623 86.0438 31.4412 85.0569 32.2197C84.0463 33.0167 82.3971 33.4285 80.1556 33.444L77.787 33.4605L79.5938 23.7077ZM85.2207 16.7113L73.2025 16.7947C72.6372 16.7986 72.154 17.2067 72.05 17.7678L66.6748 46.7776C66.6099 47.1277 66.7034 47.4886 66.9295 47.762C67.1558 48.0353 67.4912 48.192 67.8439 48.1896L74.0938 48.1462C74.6591 48.1423 75.1425 47.7342 75.2465 47.1731L76.4963 40.4267L80.876 40.3963C83.3527 40.3792 85.4358 40.092 87.0668 39.5429C88.7443 38.9797 90.285 38.0335 91.6451 36.731C92.77 35.6715 93.6941 34.4845 94.3919 33.2025C95.0899 31.9201 95.5879 30.4919 95.8719 28.9578C96.5768 25.1552 95.9617 22.1185 94.0437 19.9325C92.1444 17.7676 89.1759 16.6838 85.2207 16.7113ZM76.3624 34.663L80.1639 34.6366C82.6837 34.6192 84.5573 34.1269 85.7839 33.1597C87.0109 32.1922 87.8315 30.5861 88.2482 28.3406C88.647 26.1846 88.4481 24.6665 87.6514 23.7869C86.8539 22.9073 85.2684 22.4756 82.8941 22.4921L78.6119 22.5218L76.3624 34.663ZM85.229 17.9039C88.8445 17.8788 91.4886 18.8186 93.1598 20.7234C94.8309 22.6283 95.3485 25.2997 94.7109 28.7384C94.4485 30.155 93.9971 31.4516 93.357 32.6278C92.7161 33.8049 91.8761 34.8829 90.8357 35.8624C89.5959 37.0504 88.2153 37.9004 86.6932 38.4115C85.1712 38.924 83.2298 39.1873 80.8677 39.2037L75.5143 39.2409L74.0855 46.9535L67.8356 46.9969L73.2108 17.9873L85.229 17.9039" fill="white"/>
<defs>
<radialGradient id="paint0_radial_40_541" cx="0" cy="0" r="1" gradientUnits="userSpaceOnUse" gradientTransform="translate(34.3326 12.2934) rotate(-0.397683) scale(71.468 72.1672)">
<stop stop-color="#AEB2D5"/>
<stop offset="0.3" stop-color="#AEB2D5"/>
<stop offset="0.75" stop-color="#484C89"/>
<stop offset="1" stop-color="#484C89"/>
</radialGradient>
</defs>
</svg>
