<svg width="26" height="26" viewBox="0 0 26 26" fill="none" xmlns="http://www.w3.org/2000/svg">
<g clip-path="url(#clip0_6_44)">
<path d="M25.4106 4.81323C25.0022 4.99439 24.5822 5.14729 24.1531 5.27142C24.6612 4.6969 25.0485 4.0209 25.2849 3.28116C25.3379 3.11535 25.283 2.93385 25.1467 2.82541C25.0106 2.71688 24.8214 2.70388 24.6716 2.7927C23.7603 3.33316 22.7772 3.72157 21.7463 3.94869C20.7079 2.93402 19.2975 2.35657 17.8395 2.35657C14.7619 2.35657 12.258 4.86037 12.258 7.93792C12.258 8.18031 12.2733 8.42136 12.3037 8.65905C8.48464 8.32373 4.93413 6.44662 2.496 3.45586C2.40911 3.34926 2.27525 3.29181 2.13821 3.3028C2.00108 3.31353 1.87787 3.39086 1.80859 3.50971C1.31409 4.35823 1.05267 5.3287 1.05267 6.31611C1.05267 7.66098 1.53283 8.937 2.38101 9.93405C2.12311 9.84473 1.87284 9.7331 1.63398 9.6005C1.50574 9.52912 1.34923 9.53021 1.22183 9.60327C1.09435 9.67632 1.01442 9.81068 1.01107 9.95754C1.01048 9.98228 1.01048 10.007 1.01048 10.0321C1.01048 12.0395 2.0909 13.8469 3.74274 14.8319C3.60083 14.8178 3.45901 14.7972 3.3181 14.7703C3.17284 14.7425 3.02347 14.7934 2.9255 14.9042C2.82738 15.015 2.79492 15.1693 2.84012 15.3102C3.45154 17.2191 5.02572 18.6232 6.92875 19.0512C5.35038 20.0398 3.54539 20.5576 1.65058 20.5576C1.25521 20.5576 0.857583 20.5344 0.468421 20.4884C0.275099 20.4654 0.0902475 20.5795 0.0244089 20.7634C-0.0414298 20.9473 0.0283508 21.1524 0.192822 21.2578C2.62701 22.8186 5.44163 23.6435 8.33224 23.6435C14.0148 23.6435 17.5697 20.9638 19.5512 18.7158C22.022 15.9128 23.4391 12.2026 23.4391 8.53668C23.4391 8.38353 23.4367 8.22887 23.432 8.07472C24.4069 7.34026 25.2462 6.4514 25.9291 5.42977C26.0329 5.2746 26.0216 5.06954 25.9014 4.92671C25.7814 4.78379 25.5814 4.73758 25.4106 4.81323Z" fill="#005A75"/>
</g>
<defs>
<clipPath id="clip0_6_44">
<rect width="26" height="26" fill="white"/>
</clipPath>
</defs>
</svg>
